<svg width="10" height="6" viewBox="0 0 10 6" fill="none" xmlns="http://www.w3.org/2000/svg">
<path d="M4.99833 5.91657C4.87959 5.91657 4.76441 5.89431 4.65279 5.84978C4.54117 5.80525 4.44855 5.74588 4.37493 5.67166L0.278243 1.57498C0.114969 1.41171 0.0333328 1.2039 0.0333328 0.95157C0.0333328 0.699238 0.114969 0.491436 0.278243 0.328162C0.441516 0.164888 0.649319 0.083252 0.901651 0.083252C1.15398 0.083252 1.36179 0.164888 1.52506 0.328162L4.99833 3.80144L8.47161 0.328162C8.63488 0.164888 8.84268 0.083252 9.09502 0.083252C9.34735 0.083252 9.55515 0.164888 9.71842 0.328162C9.8817 0.491436 9.96334 0.699238 9.96334 0.95157C9.96334 1.2039 9.8817 1.41171 9.71842 1.57498L5.62174 5.67166C5.53268 5.76072 5.4362 5.82395 5.3323 5.86135C5.2284 5.89876 5.11708 5.91717 4.99833 5.91657Z" fill="#13154C"/>
</svg>
