<svg width="10" height="6" viewBox="0 0 10 6" fill="none" xmlns="http://www.w3.org/2000/svg">
<path d="M4.99833 0.0834284C4.87958 0.0834284 4.7644 0.105694 4.65278 0.150223C4.54116 0.194752 4.44854 0.254124 4.37492 0.32834L0.278235 4.42502C0.114962 4.58829 0.0333252 4.7961 0.0333252 5.04843C0.0333252 5.30076 0.114962 5.50856 0.278235 5.67184C0.441509 5.83511 0.649312 5.91675 0.901644 5.91675C1.15398 5.91675 1.36178 5.83511 1.52505 5.67184L4.99833 2.19856L8.4716 5.67184C8.63487 5.83511 8.84268 5.91675 9.09501 5.91675C9.34734 5.91675 9.55514 5.83511 9.71842 5.67184C9.88169 5.50856 9.96333 5.30076 9.96333 5.04843C9.96333 4.7961 9.88169 4.58829 9.71842 4.42502L5.62173 0.32834C5.53268 0.239281 5.4362 0.17605 5.33229 0.138645C5.22839 0.101241 5.11707 0.0828347 4.99833 0.0834284Z" fill="#13154C"/>
</svg>
